<?xml version="1.0" encoding="utf-8"?>
<!-- Generator: Adobe Illustrator 28.2.0, SVG Export Plug-In . SVG Version: 6.00 Build 0)  -->
<!DOCTYPE svg PUBLIC "-//W3C//DTD SVG 1.1 Basic//EN" "http://www.w3.org/Graphics/SVG/1.1/DTD/svg11-basic.dtd" [
	<!ENTITY ns_extend "http://ns.adobe.com/Extensibility/1.0/">
	<!ENTITY ns_ai "http://ns.adobe.com/AdobeIllustrator/10.0/">
	<!ENTITY ns_graphs "http://ns.adobe.com/Graphs/1.0/">
	<!ENTITY ns_vars "http://ns.adobe.com/Variables/1.0/">
	<!ENTITY ns_imrep "http://ns.adobe.com/ImageReplacement/1.0/">
	<!ENTITY ns_sfw "http://ns.adobe.com/SaveForWeb/1.0/">
	<!ENTITY ns_custom "http://ns.adobe.com/GenericCustomNamespace/1.0/">
	<!ENTITY ns_adobe_xpath "http://ns.adobe.com/XPath/1.0/">
]>
<svg version="1.1" baseProfile="basic" id="Layer_1" xmlns:x="&ns_extend;" xmlns:i="&ns_ai;" xmlns:graph="&ns_graphs;"
	 xmlns="http://www.w3.org/2000/svg" xmlns:xlink="http://www.w3.org/1999/xlink" x="0px" y="0px" viewBox="0 0 1366 768"
	 xml:space="preserve">
<style type="text/css">
	.st0{fill:#F17A7E;}
	.st1{font-family:'SquadaOne-Regular';}
	.st2{font-size:150px;}
</style>
<metadata>
	<sfw  xmlns="&ns_sfw;">
		<slices></slices>
		<sliceSourceBounds  bottomLeftOrigin="true" height="332.1" width="689.2" x="314.7" y="-515.8"></sliceSourceBounds>
	</sfw>
</metadata>
<g>
	<g>
		<path class="st0" d="M428.4,240.6c25.4-25.5,69.7-25.5,94.9,0c27,27,27,71.5,0,98.7l-27.7,28.2c-7.1,7.4-6.9,18.9,0.8,26
			c7.6,6.9,19.6,6.6,27-0.7l27.7-28.2c40.7-41.3,40.7-108.3,0-149.5c-19.8-20.4-46.6-31.4-75-31.4s-55.2,11.3-75,31.4l-55.7,56.5
			c-40.7,41.3-40.7,108.3,0,149.5c17.3,17.7,40.4,28.7,65.1,30.9c0.5,0,1.3,0,1.8,0c9.7,0,18.1-7.1,18.8-16.5
			c1-10.1-6.6-19.2-17-20.1c-15.5-1.5-30.3-8.3-41.2-19.6c-27-27-27-71.5,0-98.7L428.4,240.6z"/>
		<path class="st0" d="M542.6,486.4c28.5,0,55.2-11.3,75-31.4l55.7-56.5c40.7-41.3,40.7-108.5,0.3-149.5
			c-17.3-17.7-40.4-28.5-65.1-30.9c-10.7-1.2-19.8,6.4-20.9,16.5c-1,10.1,6.6,19.2,17,20.1c15.5,1.5,30.3,8.3,41.2,19.6
			c27,27,27,71.5,0,98.7l-55.7,56.5c-25.4,25.8-69.7,25.5-94.9,0c-27-27-27-71.5,0-98.7l27.7-28.2c7.1-7.4,6.9-18.9-0.8-26
			c-7.6-6.9-19.6-6.6-27,0.7l-27.7,28.2c-40.7,41.3-40.7,108.3,0,149.5C487.4,475.3,514.1,486.4,542.6,486.4z"/>
	</g>
	<text transform="matrix(1 0 0 1 703.8838 486.3757)" class="st0 st1 st2">CLINK</text>
</g>
</svg>
