<?xml version="1.0" encoding="utf-8"?>
<!-- Generator: Adobe Illustrator 28.2.0, SVG Export Plug-In . SVG Version: 6.00 Build 0)  -->
<!DOCTYPE svg PUBLIC "-//W3C//DTD SVG 1.1 Basic//EN" "http://www.w3.org/Graphics/SVG/1.1/DTD/svg11-basic.dtd" [
	<!ENTITY ns_extend "http://ns.adobe.com/Extensibility/1.0/">
	<!ENTITY ns_ai "http://ns.adobe.com/AdobeIllustrator/10.0/">
	<!ENTITY ns_graphs "http://ns.adobe.com/Graphs/1.0/">
	<!ENTITY ns_vars "http://ns.adobe.com/Variables/1.0/">
	<!ENTITY ns_imrep "http://ns.adobe.com/ImageReplacement/1.0/">
	<!ENTITY ns_sfw "http://ns.adobe.com/SaveForWeb/1.0/">
	<!ENTITY ns_custom "http://ns.adobe.com/GenericCustomNamespace/1.0/">
	<!ENTITY ns_adobe_xpath "http://ns.adobe.com/XPath/1.0/">
]>
<svg version="1.1" baseProfile="basic" id="Layer_1" xmlns:x="&ns_extend;" xmlns:i="&ns_ai;" xmlns:graph="&ns_graphs;"
	 xmlns="http://www.w3.org/2000/svg" xmlns:xlink="http://www.w3.org/1999/xlink" x="0px" y="0px" viewBox="0 0 1366 768"
	 xml:space="preserve">
<style type="text/css">
	.st0{fill:#F17A7E;}
</style>
<metadata>
	<sfw  xmlns="&ns_sfw;">
		<slices></slices>
		<sliceSourceBounds  bottomLeftOrigin="true" height="649.9" width="685.7" x="340.2" y="-708.8"></sliceSourceBounds>
	</sfw>
</metadata>
<path class="st0" d="M340.2,108.9v549.9c0,27.6,22.4,50,50,50h585.7c27.6,0,50-22.4,50-50V108.9c0-27.6-22.4-50-50-50H390.2
	C362.6,58.9,340.2,81.3,340.2,108.9z M568.8,538.7c-1.1,14.4-13.4,25.3-27.5,25.3c-0.7,0-1.9,0-2.6,0c-36-3.4-69.8-20.4-95-47.7
	c-59.4-63.5-59.4-166.8,0-230.3l81.3-87c28.9-31,67.9-48.4,109.5-48.4c41.6,0,80.5,17,109.5,48.4c59.4,63.5,59.4,166.8,0,230.3
	l-40.4,43.5c-10.8,11.3-28.2,11.7-39.3,1.1c-11.1-11-11.5-28.7-1.1-40.1l40.4-43.5c39.3-42,39.3-110.4,0-152
	c-36.7-39.3-101.3-39.3-138.4,0l-81.3,87c-39.3,42-39.3,110.4,0,152c16,17.4,37.5,28,60.1,30.3C559.1,509.2,570.3,523.2,568.8,538.7
	z M922.4,481.6l-81.3,87c-28.9,31-67.9,48.4-109.5,48.4c-41.6,0-80.5-17-109.5-48.4c-59.4-63.5-59.4-166.8,0-230.3l40.4-43.5
	c10.8-11.3,28.2-11.7,39.3-1.1c11.1,11,11.5,28.7,1.1,40.1l-40.4,43.5c-39.3,42-39.3,110.4,0,152c36.7,39.3,101.3,39.7,138.4,0
	l81.3-87c39.3-42,39.3-110.4,0-152c-16-17.4-37.5-28-60.1-30.3c-15.2-1.5-26.3-15.5-24.9-31c1.5-15.5,14.8-27.2,30.4-25.3
	c36,3.8,69.8,20.4,95,47.7C981.7,314.5,981.7,418.1,922.4,481.6z"/>
</svg>
