<?xml version="1.0" encoding="UTF-8"?><svg id="Layer_1" xmlns="http://www.w3.org/2000/svg" viewBox="0 0 1366 768"><defs><style>.cls-1{fill:#f17a7e;stroke-width:0px;}</style></defs><path class="cls-1" d="M565.08,238.45c37.1-39.33,101.67-39.33,138.4,0,39.33,41.6,39.33,110.06,0,152.04l-40.44,43.49c-10.39,11.35-10.02,29.12,1.11,40.09,11.13,10.59,28.57,10.21,39.33-1.13l40.44-43.49c59.37-63.54,59.37-166.79,0-230.32-28.94-31.39-67.9-48.41-109.46-48.41s-80.52,17.4-109.46,48.41l-81.26,86.99c-59.37,63.54-59.37,166.79,0,230.32,25.23,27.23,59,44.25,94.99,47.65h2.6c14.1,0,26.34-10.97,27.46-25.34,1.48-15.51-9.65-29.5-24.86-31.01-22.63-2.27-44.15-12.86-60.11-30.26-39.33-41.6-39.33-110.06,0-152.04l81.26-86.99Z"/><path class="cls-1" d="M731.68,617.03c41.56,0,80.52-17.4,109.46-48.41l81.26-86.99c59.37-63.54,59.37-167.16.37-230.32-25.23-27.23-59-43.87-94.99-47.65-15.58-1.89-28.94,9.83-30.43,25.34-1.48,15.51,9.65,29.5,24.86,31.01,22.63,2.27,44.15,12.86,60.11,30.26,39.33,41.6,39.33,110.06,0,152.04l-81.26,86.99c-37.1,39.71-101.67,39.33-138.4,0-39.33-41.6-39.33-110.06,0-152.04l40.44-43.49c10.39-11.35,10.02-29.12-1.11-40.09-11.13-10.59-28.57-10.21-39.33,1.13l-40.44,43.49c-59.37,63.54-59.37,166.79,0,230.32,28.94,31.39,67.9,48.41,109.46,48.41Z"/></svg>